HIERARCHY
ROOT Hips
{
	OFFSET 0.000000 91.384300 0.000000
	CHANNELS 6 Xposition Yposition Zposition Xrotation Yrotation Zrotation
	JOINT LeftUpLeg
	{
		OFFSET 9.077000 -4.133000 1.997000
		CHANNELS 3 Xrotation Yrotation Zrotation
		JOINT LeftLeg
		{
			OFFSET -0.837700 -38.099998 -0.644600
			CHANNELS 3 Xrotation Yrotation Zrotation
			JOINT LeftFoot
			{
				OFFSET -2.286000 -39.700100 -5.944000
				CHANNELS 3 Xrotation Yrotation Zrotation
				JOINT LeftToeBase
				{
					OFFSET 0.765600 -9.713000 12.380000
					CHANNELS 3 Xrotation Yrotation Zrotation
					End Site
					{
						OFFSET 0 0 0
					}
				}
			}
		}
	}
	JOINT RightUpLeg
	{
		OFFSET -9.077000 -4.133000 1.997000
		CHANNELS 3 Xrotation Yrotation Zrotation
		JOINT RightLeg
		{
			OFFSET 0.838700 -38.100201 -0.635000
			CHANNELS 3 Xrotation Yrotation Zrotation
			JOINT RightFoot
			{
				OFFSET 2.286000 -39.700001 -5.944000
				CHANNELS 3 Xrotation Yrotation Zrotation
				JOINT RightToeBase
				{
					OFFSET -0.765600 -9.713000 12.380000
					CHANNELS 3 Xrotation Yrotation Zrotation
					End Site
					{
						OFFSET 0 0 0
					}
				}
			}
		}
	}
	JOINT Spine
	{
		OFFSET 0.000000 4.991000 -1.131000
		CHANNELS 3 Xrotation Yrotation Zrotation
		JOINT Spine1
		{
			OFFSET 0.000000 5.519000 1.053000
			CHANNELS 3 Xrotation Yrotation Zrotation
			JOINT Spine2
			{
				OFFSET 0.000000 5.886000 0.113000
				CHANNELS 3 Xrotation Yrotation Zrotation
				JOINT Spine3
				{
					OFFSET 0.000000 6.393000 -0.435800
					CHANNELS 3 Xrotation Yrotation Zrotation
					JOINT Spine4
					{
						OFFSET 0.000000 7.474000 -1.480000
						CHANNELS 3 Xrotation Yrotation Zrotation
						JOINT Spine5
						{
							OFFSET 0.000000 9.333000 -0.898600
							CHANNELS 3 Xrotation Yrotation Zrotation
							JOINT Spine6
							{
								OFFSET 0.000000 10.370000 1.550000
								CHANNELS 3 Xrotation Yrotation Zrotation
								JOINT LeftShoulder
								{
									OFFSET 1.212000 -7.475000 7.403000
									CHANNELS 3 Xrotation Yrotation Zrotation
									JOINT LeftArm
									{
										OFFSET 12.730000 3.193000 -3.212000
										CHANNELS 3 Xrotation Yrotation Zrotation
										JOINT LeftForeArm
										{
											OFFSET 28.700001 0.058700 0.134700
											CHANNELS 3 Xrotation Yrotation Zrotation
											JOINT LeftHand
											{
												OFFSET 23.809999 0.048800 0.111700
												CHANNELS 3 Xrotation Yrotation Zrotation
												JOINT LeftHandThumb1
												{
													OFFSET 0.342600 -0.877100 1.299200
													CHANNELS 3 Xrotation Yrotation Zrotation
													JOINT LeftHandThumb2
													{
														OFFSET 3.552400 0.035400 4.233400
														CHANNELS 3 Xrotation Yrotation Zrotation
														JOINT LeftHandThumb3
														{
															OFFSET 2.296600 0.022900 2.736900
															CHANNELS 3 Xrotation Yrotation Zrotation
															End Site
															{
																OFFSET 0 0 0
															}
														}
													}
												}
												JOINT LeftHandIndex1
												{
													OFFSET 8.341500 -0.231800 2.230700
													CHANNELS 3 Xrotation Yrotation Zrotation
													JOINT LeftHandIndex2
													{
														OFFSET 4.365700 0.000000 0.000000
														CHANNELS 3 Xrotation Yrotation Zrotation
														JOINT LeftHandIndex3
														{
															OFFSET 2.594000 0.000000 0.000000
															CHANNELS 3 Xrotation Yrotation Zrotation
															End Site
															{
																OFFSET 0 0 0
															}
														}
													}
												}
												JOINT LeftHandMiddle1
												{
													OFFSET 8.432300 0.000000 0.000000
													CHANNELS 3 Xrotation Yrotation Zrotation
													JOINT LeftHandMiddle2
													{
														OFFSET 4.555200 0.000000 0.000000
														CHANNELS 3 Xrotation Yrotation Zrotation
														JOINT LeftHandMiddle3
														{
															OFFSET 2.865300 0.000000 0.000000
															CHANNELS 3 Xrotation Yrotation Zrotation
															End Site
															{
																OFFSET 0 0 0
															}
														}
													}
												}
												JOINT LeftHandRing1
												{
													OFFSET 7.689400 -0.454700 -1.530700
													CHANNELS 3 Xrotation Yrotation Zrotation
													JOINT LeftHandRing2
													{
														OFFSET 4.269500 0.000000 0.000000
														CHANNELS 3 Xrotation Yrotation Zrotation
														JOINT LeftHandRing3
														{
															OFFSET 2.807300 0.000000 0.000000
															CHANNELS 3 Xrotation Yrotation Zrotation
															End Site
															{
																OFFSET 0 0 0
															}
														}
													}
												}
												JOINT LeftHandPinky1
												{
													OFFSET 6.579800 -1.192300 -2.874700
													CHANNELS 3 Xrotation Yrotation Zrotation
													JOINT LeftHandPinky2
													{
														OFFSET 3.404900 0.000000 0.000000
														CHANNELS 3 Xrotation Yrotation Zrotation
														JOINT LeftHandPinky3
														{
															OFFSET 2.167000 0.000000 0.000000
															CHANNELS 3 Xrotation Yrotation Zrotation
															End Site
															{
																OFFSET 0 0 0
															}
														}
													}
												}
											}
										}
									}
								}
								JOINT RightShoulder
								{
									OFFSET -1.212000 -7.475000 7.403000
									CHANNELS 3 Xrotation Yrotation Zrotation
									JOINT RightArm
									{
										OFFSET -12.730000 3.193000 -3.212000
										CHANNELS 3 Xrotation Yrotation Zrotation
										JOINT RightForeArm
										{
											OFFSET -28.700001 0.058900 0.134800
											CHANNELS 3 Xrotation Yrotation Zrotation
											JOINT RightHand
											{
												OFFSET -23.809999 0.048800 0.111800
												CHANNELS 3 Xrotation Yrotation Zrotation
												JOINT RightHandThumb1
												{
													OFFSET -0.331700 -0.854900 1.465200
													CHANNELS 3 Xrotation Yrotation Zrotation
													JOINT RightHandThumb2
													{
														OFFSET -3.394400 0.033800 4.045100
														CHANNELS 3 Xrotation Yrotation Zrotation
														JOINT RightHandThumb3
														{
															OFFSET -2.228600 0.022200 2.655900
															CHANNELS 3 Xrotation Yrotation Zrotation
															End Site
															{
																OFFSET 0 0 0
															}
														}
													}
												}
												JOINT RightHandIndex1
												{
													OFFSET -8.067200 -0.148300 2.256000
													CHANNELS 3 Xrotation Yrotation Zrotation
													JOINT RightHandIndex2
													{
														OFFSET -4.244400 0.000000 0.000000
														CHANNELS 3 Xrotation Yrotation Zrotation
														JOINT RightHandIndex3
														{
															OFFSET -2.518100 0.000000 0.000000
															CHANNELS 3 Xrotation Yrotation Zrotation
															End Site
															{
																OFFSET 0 0 0
															}
														}
													}
												}
												JOINT RightHandMiddle1
												{
													OFFSET -8.141100 0.000000 0.000000
													CHANNELS 3 Xrotation Yrotation Zrotation
													JOINT RightHandMiddle2
													{
														OFFSET -4.416900 0.000000 0.000000
														CHANNELS 3 Xrotation Yrotation Zrotation
														JOINT RightHandMiddle3
														{
															OFFSET -2.814700 0.000000 0.000000
															CHANNELS 3 Xrotation Yrotation Zrotation
															End Site
															{
																OFFSET 0 0 0
															}
														}
													}
												}
												JOINT RightHandRing1
												{
													OFFSET -7.423600 -0.524800 -1.560900
													CHANNELS 3 Xrotation Yrotation Zrotation
													JOINT RightHandRing2
													{
														OFFSET -4.128000 0.000000 0.000000
														CHANNELS 3 Xrotation Yrotation Zrotation
														JOINT RightHandRing3
														{
															OFFSET -2.724700 0.000000 0.000000
															CHANNELS 3 Xrotation Yrotation Zrotation
															End Site
															{
																OFFSET 0 0 0
															}
														}
													}
												}
												JOINT RightHandPinky1
												{
													OFFSET -6.307900 -1.287900 -2.847400
													CHANNELS 3 Xrotation Yrotation Zrotation
													JOINT RightHandPinky2
													{
														OFFSET -3.314800 0.000000 0.000000
														CHANNELS 3 Xrotation Yrotation Zrotation
														JOINT RightHandPinky3
														{
															OFFSET -2.102600 0.000000 0.000000
															CHANNELS 3 Xrotation Yrotation Zrotation
															End Site
															{
																OFFSET 0 0 0
															}
														}
													}
												}
											}
										}
									}
								}
								JOINT Neck
								{
									OFFSET 0.000000 4.703000 0.702900
									CHANNELS 3 Xrotation Yrotation Zrotation
									JOINT Neck1
									{
										OFFSET 0.000000 4.737000 0.414500
										CHANNELS 3 Xrotation Yrotation Zrotation
										JOINT Head
										{
											OFFSET 0.000000 4.747000 0.751800
											CHANNELS 3 Xrotation Yrotation Zrotation
											End Site
											{
												OFFSET 0 0 0
											}
										}
									}
								}
							}
						}
					}
				}
			}
		}
	}
}
MOTION
Frames: 5
Frame Time: 1.00000000
0.000000 91.384300 0.000000 -4.088516 0.000004 -4.297676 -25.292538 -9.449701 3.600111 12.835461 -0.728887 -0.026717 -6.029193 1.643478 17.916073 0.000000 -0.000000 -0.000000 11.353965 -3.010958 7.571861 4.162391 0.235531 0.026530 -8.559485 26.677673 -20.199543 -0.000000 0.000000 0.000000 4.593078 1.990987 2.441429 0.573661 0.790262 0.709331 0.575597 0.795016 0.702431 0.577738 0.799571 0.695431 0.580082 0.804027 0.688431 0.582631 0.808185 0.681331 0.585386 0.812143 0.674131 0.568766 2.896112 4.327731 17.265585 -3.870709 -77.692879 3.544035 -16.632805 1.089529 -0.224499 3.054576 3.392224 14.365862 25.003025 -38.477787 0.089177 7.225739 -0.198577 -0.140507 10.548246 -0.058016 3.488472 6.008709 -34.612183 1.494554 2.847112 -50.451607 0.378982 1.492400 -23.252439 2.052312 3.192714 -34.510948 -0.258639 -0.229641 -41.824600 -0.114301 -0.128811 -24.148855 -10.572394 13.955915 -29.855869 0.527471 3.628824 -43.150475 -0.112283 1.501166 -17.403519 -20.289776 19.715576 -15.728340 -0.488314 3.864541 -34.107224 -0.588676 2.774627 -24.658072 0.721961 6.058094 -2.256729 -15.898638 21.056288 64.778534 -13.253963 36.668877 7.643982 -0.658661 -1.988384 -17.784664 6.337379 -26.829176 36.066925 -4.957925 -4.089903 -4.499609 0.136749 -9.714178 0.054321 0.958152 -1.604410 30.336039 0.219927 0.229022 37.264690 0.094569 0.064514 15.391682 0.898526 -1.117124 32.425076 0.081636 0.341819 29.573093 -0.008249 0.296793 20.191854 -9.372717 -10.163369 31.021095 0.114892 -0.169540 33.872665 0.026701 -0.103045 16.249725 -15.175588 -22.404341 22.174332 -0.004186 0.206577 29.003363 -0.011391 0.187853 19.478100 0.220829 -0.140854 0.375903 0.220829 -0.140854 0.375903 4.214938 -1.538279 -6.074256 
0.704800 90.778099 4.032300 -3.718587 -0.745387 -4.628483 -26.922367 -7.784749 4.182756 9.035083 -0.512701 -0.035851 -7.658973 2.326590 17.086075 -0.000000 0.000000 -0.000000 12.153347 -3.694794 6.952710 7.214451 0.409046 0.035121 -10.448528 27.638466 -19.151924 -0.000000 -0.000000 0.000000 4.385745 2.185704 2.659178 0.551838 0.876824 0.732350 0.554392 0.881385 0.725050 0.557251 0.885648 0.717651 0.560315 0.889713 0.710250 0.563484 0.893478 0.702750 0.566954 0.897146 0.695350 0.462315 3.178541 4.495384 18.328886 -2.713773 -77.914108 3.426080 -14.086013 0.900201 -0.220374 3.244723 3.121749 14.058749 24.773094 -38.585522 0.231244 6.784892 -0.329607 -0.140767 10.297149 -0.058643 3.456463 6.030987 -34.484604 1.515648 2.864463 -50.823467 0.383924 1.491136 -23.442293 2.041874 3.239648 -33.984322 -0.259679 -0.228465 -42.084694 -0.114518 -0.128619 -24.245453 -10.749980 14.121071 -29.030670 0.541989 3.654101 -43.457466 -0.103251 1.515421 -17.579895 -20.307631 19.738363 -14.994728 -0.490923 3.875779 -34.280727 -0.586058 2.775181 -24.712128 0.426683 6.638282 -2.199241 -18.112503 20.015179 64.161606 -12.489192 38.979038 7.532231 -0.438884 -1.285579 -17.610975 6.298810 -26.944929 36.074066 -5.101290 -3.986820 -4.622492 0.136561 -9.517679 0.053846 0.915101 -1.607675 30.289270 0.220464 0.228505 37.130295 0.094706 0.064312 15.269280 0.879097 -1.078133 32.611546 0.082244 0.341673 29.471195 -0.007666 0.296808 20.079250 -9.381905 -10.119011 31.271414 0.114498 -0.169806 33.739464 0.026346 -0.103136 16.052525 -15.179004 -22.389257 22.510731 -0.003687 0.206586 28.865065 -0.011275 0.187860 19.442698 0.221260 -0.140802 0.388698 0.221260 -0.140802 0.388698 4.153522 -1.407902 -6.101929 
1.647500 90.257904 8.732800 -3.562631 -1.347355 -4.430679 -27.227922 -5.574110 3.518950 8.696691 -0.493504 -0.035983 -8.306048 2.799384 18.456474 0.000000 -0.000000 0.000000 13.090212 -4.054053 5.572796 10.731844 0.609350 0.033505 -11.476477 28.133820 -18.009035 -0.000000 0.000000 0.000000 4.102256 2.296025 2.609262 0.530865 0.947429 0.718266 0.533638 0.951393 0.710866 0.536714 0.955161 0.703466 0.539993 0.958730 0.696065 0.543476 0.962101 0.688665 0.547162 0.965273 0.681264 0.274829 3.242671 5.004396 19.115517 -2.202831 -78.660255 4.339084 -12.074236 0.964271 -0.224336 3.443081 3.008434 14.193827 24.761238 -38.558041 0.265301 6.865968 -0.363001 -0.140727 10.336449 -0.058545 3.520474 6.020734 -34.720558 1.523956 2.871274 -50.970543 0.382902 1.491327 -23.404079 2.047115 3.229360 -34.135677 -0.259334 -0.228857 -41.998096 -0.114552 -0.128588 -24.260551 -10.792996 14.192369 -29.247072 0.541872 3.651884 -43.449272 -0.101268 1.518540 -17.618235 -20.332951 19.749819 -15.305738 -0.492321 3.869190 -34.228786 -0.587649 2.769065 -24.636686 0.372738 6.860251 -2.408551 -19.327677 19.081715 64.250877 -12.493741 40.471649 7.762121 -0.157810 -0.339691 -18.218325 6.647754 -27.018728 36.105679 -5.062366 -4.436921 -4.619474 0.136830 -9.797977 0.054524 0.936336 -1.446087 30.455708 0.219704 0.229236 37.320488 0.094522 0.064583 15.433483 0.834156 -0.996507 32.883358 0.080015 0.341712 29.742996 -0.008590 0.296783 20.257755 -9.342804 -10.121173 31.629526 0.115848 -0.168888 34.196175 0.026368 -0.103131 16.064423 -15.107327 -22.429935 22.915075 -0.004851 0.206562 29.187866 -0.011878 0.187823 19.626801 0.199893 -0.123467 0.411799 0.199893 -0.123467 0.411799 4.509737 -1.337098 -6.057492 
2.796100 89.894196 14.004500 -2.897687 -1.507777 -3.262209 -27.581289 -3.507424 1.539754 11.687243 -0.663701 -0.030947 -4.428679 2.719406 19.670990 0.000000 0.000000 -0.000000 12.915175 -4.719553 3.072060 15.196595 0.862749 0.013802 -9.571456 28.524258 -17.138710 -0.000000 0.000000 0.000000 3.423346 2.205745 2.007641 0.455333 0.970226 0.637570 0.457202 0.973397 0.631370 0.459274 0.976469 0.625170 0.461549 0.979342 0.618869 0.463924 0.982216 0.612669 0.466503 0.984792 0.606469 0.085448 3.265905 5.254138 19.727976 -2.205318 -79.253326 5.219125 -11.095490 1.060944 -0.250812 3.945386 3.010720 14.599670 24.888027 -38.531143 0.293454 7.086769 -0.392696 -0.140682 10.379647 -0.058437 3.658342 5.986735 -35.061371 1.528647 2.869782 -51.061981 0.380525 1.492017 -23.311554 2.091465 3.261931 -34.409477 -0.258648 -0.229632 -41.826691 -0.114259 -0.128849 -24.130253 -10.726137 14.270488 -29.686069 0.535903 3.643620 -43.329739 -0.111306 1.502730 -17.422535 -20.292389 19.923910 -15.744398 -0.499123 3.833931 -33.939533 -0.588268 2.751448 -24.493935 0.552394 6.574177 -2.433282 -19.236557 18.550241 64.541710 -13.168816 41.513817 8.378919 -0.128199 -0.252102 -18.565481 6.294975 -26.689091 36.067802 -5.049993 -4.269600 -4.594838 0.136908 -9.878778 0.054720 0.877453 -1.373231 30.397627 0.219281 0.229640 37.425991 0.094199 0.065053 15.718984 0.791835 -0.933188 32.827759 0.078065 0.341603 29.953201 -0.010130 0.296734 20.554956 -9.420915 -10.168193 31.523571 0.116544 -0.168408 34.432869 0.026778 -0.103025 16.292526 -15.187318 -22.370766 22.613909 -0.006430 0.206519 29.625763 -0.012370 0.187791 19.776802 0.258678 -0.115128 0.482096 0.258678 -0.115128 0.482096 4.863970 -1.285445 -5.924058 
4.056200 89.700005 19.578199 -2.387851 -1.151151 -1.707105 -27.867640 -2.985979 -0.930374 15.384111 -0.873349 -0.012536 1.705386 3.047587 17.726944 0.000000 0.000000 -0.000000 11.921206 -5.711395 0.055263 20.637461 1.168249 -0.036786 -4.441113 28.941708 -15.873497 0.000000 -0.000000 -0.000000 2.732418 1.975902 1.188314 0.344862 0.929536 0.514858 0.345419 0.932011 0.509958 0.346078 0.934486 0.504958 0.346839 0.936862 0.499957 0.347798 0.939240 0.495057 0.348861 0.941418 0.490057 0.169451 3.379809 5.199990 19.801683 -2.720751 -79.519722 5.292050 -10.976641 1.063914 -0.265333 4.401739 2.888737 14.718839 24.803608 -38.582302 0.473079 6.984521 -0.562964 -0.140846 10.221449 -0.058832 3.746135 5.984099 -35.171867 1.527304 2.870222 -51.035042 0.381935 1.491585 -23.366768 2.120879 3.312090 -34.351116 -0.257823 -0.230557 -41.621399 -0.113946 -0.129125 -23.991455 -10.686204 14.285800 -29.680883 0.526771 3.627569 -43.134197 -0.116159 1.496417 -17.309849 -20.228029 19.909781 -15.689641 -0.502907 3.814226 -33.779736 -0.594586 2.751324 -24.372717 1.014884 5.735929 -2.406035 -17.997673 18.298782 65.193970 -13.364243 42.573978 8.677703 -0.177036 -0.396906 -19.124273 6.335405 -26.676659 36.125149 -5.140736 -4.326979 -4.681808 0.136973 -9.945374 0.054882 0.928436 -1.288134 30.717304 0.217980 0.230875 37.749691 0.094135 0.065146 15.775281 0.748782 -0.849915 33.285286 0.075598 0.341596 30.249910 -0.011281 0.296693 20.777357 -9.408306 -10.166701 32.014626 0.117798 -0.167534 34.860474 0.026932 -0.102985 16.378225 -15.121791 -22.343611 23.186607 -0.007572 0.206480 29.942671 -0.012991 0.187749 19.966206 0.418154 -0.136218 0.642685 0.418154 -0.136218 0.642685 5.193139 -1.286006 -5.774325 
